<mxfile host="app.diagrams.net" agent="Mozilla/5.0 (Windows NT 10.0; Win64; x64) AppleWebKit/537.36 (KHTML, like Gecko) Chrome/128.0.0.0 Safari/537.36 OPR/114.0.0.0" version="25.0.0">
  <diagram name="Page-1" id="wSEJWzMvCLWEMabdp0Az">
    <mxGraphModel grid="1" page="1" gridSize="10" guides="1" tooltips="1" connect="1" arrows="1" fold="1" pageScale="1" pageWidth="827" pageHeight="1169" math="0" shadow="0">
      <root>
        <mxCell id="0" />
        <mxCell id="1" parent="0" />
        <mxCell id="A90lZV8-0FNyPRCdymm0-1" value="Utilisateur" style="shape=umlActor;verticalLabelPosition=bottom;verticalAlign=top;html=1;outlineConnect=0;" vertex="1" parent="1">
          <mxGeometry x="50" y="230" width="30" height="60" as="geometry" />
        </mxCell>
        <mxCell id="A90lZV8-0FNyPRCdymm0-2" value="emplacement des cellule vivante" style="rounded=0;whiteSpace=wrap;html=1;" vertex="1" parent="1">
          <mxGeometry x="200" y="110" width="120" height="60" as="geometry" />
        </mxCell>
        <mxCell id="PF5hWqqIt0oe0Bs5G4Fp-1" value="nombre de répétition" style="rounded=0;whiteSpace=wrap;html=1;" vertex="1" parent="1">
          <mxGeometry x="200" y="210" width="120" height="60" as="geometry" />
        </mxCell>
        <mxCell id="PF5hWqqIt0oe0Bs5G4Fp-2" value="lancer le programme" style="rounded=0;whiteSpace=wrap;html=1;" vertex="1" parent="1">
          <mxGeometry x="200" y="300" width="120" height="60" as="geometry" />
        </mxCell>
        <mxCell id="PF5hWqqIt0oe0Bs5G4Fp-4" value="" style="endArrow=classic;html=1;rounded=0;entryX=0;entryY=0.75;entryDx=0;entryDy=0;" edge="1" parent="1" target="A90lZV8-0FNyPRCdymm0-2">
          <mxGeometry width="50" height="50" relative="1" as="geometry">
            <mxPoint x="90" y="230" as="sourcePoint" />
            <mxPoint x="130" y="170" as="targetPoint" />
          </mxGeometry>
        </mxCell>
        <mxCell id="PF5hWqqIt0oe0Bs5G4Fp-5" value="" style="endArrow=classic;html=1;rounded=0;entryX=0;entryY=0.5;entryDx=0;entryDy=0;" edge="1" parent="1" target="PF5hWqqIt0oe0Bs5G4Fp-1">
          <mxGeometry width="50" height="50" relative="1" as="geometry">
            <mxPoint x="90" y="250" as="sourcePoint" />
            <mxPoint x="440" y="300" as="targetPoint" />
          </mxGeometry>
        </mxCell>
        <mxCell id="PF5hWqqIt0oe0Bs5G4Fp-6" value="" style="endArrow=classic;html=1;rounded=0;entryX=-0.003;entryY=0.389;entryDx=0;entryDy=0;entryPerimeter=0;" edge="1" parent="1" target="PF5hWqqIt0oe0Bs5G4Fp-2">
          <mxGeometry width="50" height="50" relative="1" as="geometry">
            <mxPoint x="90" y="270" as="sourcePoint" />
            <mxPoint x="440" y="300" as="targetPoint" />
          </mxGeometry>
        </mxCell>
        <mxCell id="PF5hWqqIt0oe0Bs5G4Fp-17" style="edgeStyle=orthogonalEdgeStyle;rounded=0;orthogonalLoop=1;jettySize=auto;html=1;" edge="1" parent="1" source="PF5hWqqIt0oe0Bs5G4Fp-9" target="PF5hWqqIt0oe0Bs5G4Fp-13">
          <mxGeometry relative="1" as="geometry" />
        </mxCell>
        <mxCell id="PF5hWqqIt0oe0Bs5G4Fp-9" value="grille" style="swimlane;fontStyle=1;align=center;verticalAlign=top;childLayout=stackLayout;horizontal=1;startSize=26;horizontalStack=0;resizeParent=1;resizeParentMax=0;resizeLast=0;collapsible=1;marginBottom=0;whiteSpace=wrap;html=1;" vertex="1" parent="1">
          <mxGeometry x="110" y="630" width="160" height="120" as="geometry" />
        </mxCell>
        <mxCell id="PF5hWqqIt0oe0Bs5G4Fp-10" value="- int: largeur&amp;nbsp;&lt;div&gt;- int: longueur&lt;/div&gt;" style="text;strokeColor=none;fillColor=none;align=left;verticalAlign=top;spacingLeft=4;spacingRight=4;overflow=hidden;rotatable=0;points=[[0,0.5],[1,0.5]];portConstraint=eastwest;whiteSpace=wrap;html=1;" vertex="1" parent="PF5hWqqIt0oe0Bs5G4Fp-9">
          <mxGeometry y="26" width="160" height="34" as="geometry" />
        </mxCell>
        <mxCell id="PF5hWqqIt0oe0Bs5G4Fp-11" value="" style="line;strokeWidth=1;fillColor=none;align=left;verticalAlign=middle;spacingTop=-1;spacingLeft=3;spacingRight=3;rotatable=0;labelPosition=right;points=[];portConstraint=eastwest;strokeColor=inherit;" vertex="1" parent="PF5hWqqIt0oe0Bs5G4Fp-9">
          <mxGeometry y="60" width="160" height="8" as="geometry" />
        </mxCell>
        <mxCell id="PF5hWqqIt0oe0Bs5G4Fp-12" value="+void grille()&lt;div&gt;+ void initialiser()&lt;/div&gt;&lt;div&gt;+&lt;/div&gt;" style="text;strokeColor=none;fillColor=none;align=left;verticalAlign=top;spacingLeft=4;spacingRight=4;overflow=hidden;rotatable=0;points=[[0,0.5],[1,0.5]];portConstraint=eastwest;whiteSpace=wrap;html=1;" vertex="1" parent="PF5hWqqIt0oe0Bs5G4Fp-9">
          <mxGeometry y="68" width="160" height="52" as="geometry" />
        </mxCell>
        <mxCell id="PF5hWqqIt0oe0Bs5G4Fp-13" value="évolution" style="swimlane;fontStyle=1;align=center;verticalAlign=top;childLayout=stackLayout;horizontal=1;startSize=26;horizontalStack=0;resizeParent=1;resizeParentMax=0;resizeLast=0;collapsible=1;marginBottom=0;whiteSpace=wrap;html=1;" vertex="1" parent="1">
          <mxGeometry x="110" y="810" width="160" height="104" as="geometry" />
        </mxCell>
        <mxCell id="PF5hWqqIt0oe0Bs5G4Fp-14" value="int x,y" style="text;strokeColor=none;fillColor=none;align=left;verticalAlign=top;spacingLeft=4;spacingRight=4;overflow=hidden;rotatable=0;points=[[0,0.5],[1,0.5]];portConstraint=eastwest;whiteSpace=wrap;html=1;" vertex="1" parent="PF5hWqqIt0oe0Bs5G4Fp-13">
          <mxGeometry y="26" width="160" height="44" as="geometry" />
        </mxCell>
        <mxCell id="PF5hWqqIt0oe0Bs5G4Fp-15" value="" style="line;strokeWidth=1;fillColor=none;align=left;verticalAlign=middle;spacingTop=-1;spacingLeft=3;spacingRight=3;rotatable=0;labelPosition=right;points=[];portConstraint=eastwest;strokeColor=inherit;" vertex="1" parent="PF5hWqqIt0oe0Bs5G4Fp-13">
          <mxGeometry y="70" width="160" height="8" as="geometry" />
        </mxCell>
        <mxCell id="PF5hWqqIt0oe0Bs5G4Fp-16" value="+void évoluer" style="text;strokeColor=none;fillColor=none;align=left;verticalAlign=top;spacingLeft=4;spacingRight=4;overflow=hidden;rotatable=0;points=[[0,0.5],[1,0.5]];portConstraint=eastwest;whiteSpace=wrap;html=1;" vertex="1" parent="PF5hWqqIt0oe0Bs5G4Fp-13">
          <mxGeometry y="78" width="160" height="26" as="geometry" />
        </mxCell>
        <mxCell id="PF5hWqqIt0oe0Bs5G4Fp-18" value="" style="html=1;points=[[0,0,0,0,5],[0,1,0,0,-5],[1,0,0,0,5],[1,1,0,0,-5]];perimeter=orthogonalPerimeter;outlineConnect=0;targetShapes=umlLifeline;portConstraint=eastwest;newEdgeStyle={&quot;curved&quot;:0,&quot;rounded&quot;:0};" vertex="1" parent="1">
          <mxGeometry x="605" y="1116" width="10" height="134" as="geometry" />
        </mxCell>
        <mxCell id="PF5hWqqIt0oe0Bs5G4Fp-21" value="" style="html=1;points=[[0,0,0,0,5],[0,1,0,0,-5],[1,0,0,0,5],[1,1,0,0,-5]];perimeter=orthogonalPerimeter;outlineConnect=0;targetShapes=umlLifeline;portConstraint=eastwest;newEdgeStyle={&quot;curved&quot;:0,&quot;rounded&quot;:0};" vertex="1" parent="1">
          <mxGeometry x="65" y="1126" width="10" height="134" as="geometry" />
        </mxCell>
        <mxCell id="PF5hWqqIt0oe0Bs5G4Fp-22" value="Utilisateur" style="text;align=center;fontStyle=1;verticalAlign=middle;spacingLeft=3;spacingRight=3;strokeColor=none;rotatable=0;points=[[0,0.5],[1,0.5]];portConstraint=eastwest;html=1;" vertex="1" parent="1">
          <mxGeometry x="30" y="1100" width="80" height="26" as="geometry" />
        </mxCell>
        <mxCell id="PF5hWqqIt0oe0Bs5G4Fp-23" value="interface" style="text;align=center;fontStyle=1;verticalAlign=middle;spacingLeft=3;spacingRight=3;strokeColor=none;rotatable=0;points=[[0,0.5],[1,0.5]];portConstraint=eastwest;html=1;" vertex="1" parent="1">
          <mxGeometry x="570" y="1090" width="80" height="26" as="geometry" />
        </mxCell>
        <mxCell id="PF5hWqqIt0oe0Bs5G4Fp-24" value="machine" style="text;align=center;fontStyle=1;verticalAlign=middle;spacingLeft=3;spacingRight=3;strokeColor=none;rotatable=0;points=[[0,0.5],[1,0.5]];portConstraint=eastwest;html=1;" vertex="1" parent="1">
          <mxGeometry x="300" y="1100" width="80" height="26" as="geometry" />
        </mxCell>
        <mxCell id="PF5hWqqIt0oe0Bs5G4Fp-26" value="" style="html=1;points=[[0,0,0,0,5],[0,1,0,0,-5],[1,0,0,0,5],[1,1,0,0,-5]];perimeter=orthogonalPerimeter;outlineConnect=0;targetShapes=umlLifeline;portConstraint=eastwest;newEdgeStyle={&quot;curved&quot;:0,&quot;rounded&quot;:0};" vertex="1" parent="1">
          <mxGeometry x="335" y="1126" width="10" height="134" as="geometry" />
        </mxCell>
        <mxCell id="PF5hWqqIt0oe0Bs5G4Fp-27" value="" style="endArrow=classic;html=1;rounded=0;" edge="1" parent="1">
          <mxGeometry width="50" height="50" relative="1" as="geometry">
            <mxPoint x="75" y="1170.0000000000002" as="sourcePoint" />
            <mxPoint x="335" y="1170.0000000000005" as="targetPoint" />
          </mxGeometry>
        </mxCell>
        <mxCell id="PF5hWqqIt0oe0Bs5G4Fp-28" value="indiquer les cellules vivante" style="edgeLabel;html=1;align=center;verticalAlign=middle;resizable=0;points=[];" connectable="0" vertex="1" parent="PF5hWqqIt0oe0Bs5G4Fp-27">
          <mxGeometry x="-0.0527" y="3" relative="1" as="geometry">
            <mxPoint as="offset" />
          </mxGeometry>
        </mxCell>
        <mxCell id="PF5hWqqIt0oe0Bs5G4Fp-31" value="" style="endArrow=classic;html=1;rounded=0;" edge="1" parent="1">
          <mxGeometry width="50" height="50" relative="1" as="geometry">
            <mxPoint x="345" y="1182.6400000000003" as="sourcePoint" />
            <mxPoint x="605" y="1182.64" as="targetPoint" />
          </mxGeometry>
        </mxCell>
        <mxCell id="PF5hWqqIt0oe0Bs5G4Fp-32" value="demander de faire apparaitre les cellule" style="edgeLabel;html=1;align=center;verticalAlign=middle;resizable=0;points=[];" connectable="0" vertex="1" parent="PF5hWqqIt0oe0Bs5G4Fp-31">
          <mxGeometry x="-0.0527" y="3" relative="1" as="geometry">
            <mxPoint as="offset" />
          </mxGeometry>
        </mxCell>
        <mxCell id="PF5hWqqIt0oe0Bs5G4Fp-33" value="" style="endArrow=classic;html=1;rounded=0;exitX=-0.114;exitY=0.162;exitDx=0;exitDy=0;exitPerimeter=0;" edge="1" parent="1">
          <mxGeometry width="50" height="50" relative="1" as="geometry">
            <mxPoint x="603.8600000000001" y="1149.998" as="sourcePoint" />
            <mxPoint x="75" y="1149.998" as="targetPoint" />
          </mxGeometry>
        </mxCell>
        <mxCell id="PF5hWqqIt0oe0Bs5G4Fp-34" value="afficher le tableau" style="edgeLabel;html=1;align=center;verticalAlign=middle;resizable=0;points=[];" connectable="0" vertex="1" parent="PF5hWqqIt0oe0Bs5G4Fp-33">
          <mxGeometry x="-0.3949" y="1" relative="1" as="geometry">
            <mxPoint as="offset" />
          </mxGeometry>
        </mxCell>
        <mxCell id="PF5hWqqIt0oe0Bs5G4Fp-37" style="edgeStyle=orthogonalEdgeStyle;rounded=0;orthogonalLoop=1;jettySize=auto;html=1;curved=0;" edge="1" parent="1">
          <mxGeometry relative="1" as="geometry">
            <mxPoint x="605" y="1210" as="sourcePoint" />
            <mxPoint x="80" y="1211" as="targetPoint" />
          </mxGeometry>
        </mxCell>
        <mxCell id="PF5hWqqIt0oe0Bs5G4Fp-38" value="afficher en noir les cellule en vie" style="edgeLabel;html=1;align=center;verticalAlign=middle;resizable=0;points=[];" connectable="0" vertex="1" parent="PF5hWqqIt0oe0Bs5G4Fp-37">
          <mxGeometry x="-0.4434" y="-2" relative="1" as="geometry">
            <mxPoint as="offset" />
          </mxGeometry>
        </mxCell>
        <mxCell id="PF5hWqqIt0oe0Bs5G4Fp-39" value="emplacement des cellule vivante" style="rounded=0;whiteSpace=wrap;html=1;" vertex="1" parent="1">
          <mxGeometry x="60" y="1010" width="120" height="60" as="geometry" />
        </mxCell>
        <mxCell id="PF5hWqqIt0oe0Bs5G4Fp-40" value="nombre de répétition" style="rounded=0;whiteSpace=wrap;html=1;" vertex="1" parent="1">
          <mxGeometry x="50" y="1380" width="120" height="60" as="geometry" />
        </mxCell>
        <mxCell id="PF5hWqqIt0oe0Bs5G4Fp-47" value="" style="html=1;points=[[0,0,0,0,5],[0,1,0,0,-5],[1,0,0,0,5],[1,1,0,0,-5]];perimeter=orthogonalPerimeter;outlineConnect=0;targetShapes=umlLifeline;portConstraint=eastwest;newEdgeStyle={&quot;curved&quot;:0,&quot;rounded&quot;:0};" vertex="1" parent="1">
          <mxGeometry x="99" y="1496" width="10" height="134" as="geometry" />
        </mxCell>
        <mxCell id="PF5hWqqIt0oe0Bs5G4Fp-48" value="Utilisateur" style="text;align=center;fontStyle=1;verticalAlign=middle;spacingLeft=3;spacingRight=3;strokeColor=none;rotatable=0;points=[[0,0.5],[1,0.5]];portConstraint=eastwest;html=1;" vertex="1" parent="1">
          <mxGeometry x="64" y="1470" width="80" height="26" as="geometry" />
        </mxCell>
        <mxCell id="PF5hWqqIt0oe0Bs5G4Fp-49" value="machine" style="text;align=center;fontStyle=1;verticalAlign=middle;spacingLeft=3;spacingRight=3;strokeColor=none;rotatable=0;points=[[0,0.5],[1,0.5]];portConstraint=eastwest;html=1;" vertex="1" parent="1">
          <mxGeometry x="334" y="1470" width="80" height="26" as="geometry" />
        </mxCell>
        <mxCell id="PF5hWqqIt0oe0Bs5G4Fp-50" value="" style="html=1;points=[[0,0,0,0,5],[0,1,0,0,-5],[1,0,0,0,5],[1,1,0,0,-5]];perimeter=orthogonalPerimeter;outlineConnect=0;targetShapes=umlLifeline;portConstraint=eastwest;newEdgeStyle={&quot;curved&quot;:0,&quot;rounded&quot;:0};" vertex="1" parent="1">
          <mxGeometry x="369" y="1496" width="10" height="134" as="geometry" />
        </mxCell>
        <mxCell id="PF5hWqqIt0oe0Bs5G4Fp-51" value="" style="endArrow=classic;html=1;rounded=0;" edge="1" parent="1">
          <mxGeometry width="50" height="50" relative="1" as="geometry">
            <mxPoint x="109" y="1540.0000000000002" as="sourcePoint" />
            <mxPoint x="369" y="1540.0000000000005" as="targetPoint" />
          </mxGeometry>
        </mxCell>
        <mxCell id="PF5hWqqIt0oe0Bs5G4Fp-52" value="indiquer le nombre de répétition" style="edgeLabel;html=1;align=center;verticalAlign=middle;resizable=0;points=[];" connectable="0" vertex="1" parent="PF5hWqqIt0oe0Bs5G4Fp-51">
          <mxGeometry x="-0.0527" y="3" relative="1" as="geometry">
            <mxPoint as="offset" />
          </mxGeometry>
        </mxCell>
        <mxCell id="PF5hWqqIt0oe0Bs5G4Fp-57" value="" style="edgeStyle=orthogonalEdgeStyle;rounded=0;orthogonalLoop=1;jettySize=auto;html=1;" edge="1" parent="1" source="PF5hWqqIt0oe0Bs5G4Fp-54" target="PF5hWqqIt0oe0Bs5G4Fp-56">
          <mxGeometry relative="1" as="geometry" />
        </mxCell>
        <mxCell id="PF5hWqqIt0oe0Bs5G4Fp-54" value="demander la largeur de la grille&amp;nbsp;" style="rounded=1;whiteSpace=wrap;html=1;" vertex="1" parent="1">
          <mxGeometry x="356.03" y="2120" width="120" height="60" as="geometry" />
        </mxCell>
        <mxCell id="PF5hWqqIt0oe0Bs5G4Fp-59" value="" style="edgeStyle=orthogonalEdgeStyle;rounded=0;orthogonalLoop=1;jettySize=auto;html=1;" edge="1" parent="1" source="PF5hWqqIt0oe0Bs5G4Fp-56" target="PF5hWqqIt0oe0Bs5G4Fp-58">
          <mxGeometry relative="1" as="geometry" />
        </mxCell>
        <mxCell id="PF5hWqqIt0oe0Bs5G4Fp-56" value="demander la hauteur de la grille&amp;nbsp;" style="whiteSpace=wrap;html=1;rounded=1;" vertex="1" parent="1">
          <mxGeometry x="356.03" y="2260" width="120" height="60" as="geometry" />
        </mxCell>
        <mxCell id="PF5hWqqIt0oe0Bs5G4Fp-61" value="" style="edgeStyle=orthogonalEdgeStyle;rounded=0;orthogonalLoop=1;jettySize=auto;html=1;" edge="1" parent="1" source="PF5hWqqIt0oe0Bs5G4Fp-58">
          <mxGeometry relative="1" as="geometry">
            <mxPoint x="416.03" y="2540" as="targetPoint" />
          </mxGeometry>
        </mxCell>
        <mxCell id="PF5hWqqIt0oe0Bs5G4Fp-58" value="creer la grille&amp;nbsp;" style="whiteSpace=wrap;html=1;rounded=1;" vertex="1" parent="1">
          <mxGeometry x="356.03" y="2400" width="120" height="60" as="geometry" />
        </mxCell>
        <mxCell id="PF5hWqqIt0oe0Bs5G4Fp-71" value="" style="edgeStyle=orthogonalEdgeStyle;rounded=0;orthogonalLoop=1;jettySize=auto;html=1;" edge="1" parent="1" source="PF5hWqqIt0oe0Bs5G4Fp-60" target="PF5hWqqIt0oe0Bs5G4Fp-70">
          <mxGeometry relative="1" as="geometry" />
        </mxCell>
        <mxCell id="PF5hWqqIt0oe0Bs5G4Fp-60" value="initialiser les cellule vivante" style="whiteSpace=wrap;html=1;rounded=1;" vertex="1" parent="1">
          <mxGeometry x="356.03" y="2840" width="120" height="60" as="geometry" />
        </mxCell>
        <mxCell id="PF5hWqqIt0oe0Bs5G4Fp-74" value="" style="edgeStyle=orthogonalEdgeStyle;rounded=0;orthogonalLoop=1;jettySize=auto;html=1;" edge="1" parent="1" source="PF5hWqqIt0oe0Bs5G4Fp-62" target="PF5hWqqIt0oe0Bs5G4Fp-73">
          <mxGeometry relative="1" as="geometry" />
        </mxCell>
        <mxCell id="PF5hWqqIt0oe0Bs5G4Fp-81" value="non" style="edgeLabel;html=1;align=center;verticalAlign=middle;resizable=0;points=[];" connectable="0" vertex="1" parent="PF5hWqqIt0oe0Bs5G4Fp-74">
          <mxGeometry x="-0.4593" y="2" relative="1" as="geometry">
            <mxPoint as="offset" />
          </mxGeometry>
        </mxCell>
        <mxCell id="PF5hWqqIt0oe0Bs5G4Fp-83" value="" style="edgeStyle=orthogonalEdgeStyle;rounded=0;orthogonalLoop=1;jettySize=auto;html=1;" edge="1" parent="1" source="PF5hWqqIt0oe0Bs5G4Fp-62" target="PF5hWqqIt0oe0Bs5G4Fp-82">
          <mxGeometry relative="1" as="geometry" />
        </mxCell>
        <mxCell id="PF5hWqqIt0oe0Bs5G4Fp-62" value="temps &amp;gt;=i" style="rhombus;whiteSpace=wrap;html=1;rounded=1;" vertex="1" parent="1">
          <mxGeometry x="377.03" y="3120" width="80" height="80" as="geometry" />
        </mxCell>
        <mxCell id="PF5hWqqIt0oe0Bs5G4Fp-67" value="" style="edgeStyle=orthogonalEdgeStyle;rounded=0;orthogonalLoop=1;jettySize=auto;html=1;" edge="1" parent="1" source="PF5hWqqIt0oe0Bs5G4Fp-64" target="PF5hWqqIt0oe0Bs5G4Fp-66">
          <mxGeometry relative="1" as="geometry" />
        </mxCell>
        <mxCell id="PF5hWqqIt0oe0Bs5G4Fp-64" value="demander les cellule vivante" style="whiteSpace=wrap;html=1;rounded=1;" vertex="1" parent="1">
          <mxGeometry x="357.03" y="2540" width="120" height="60" as="geometry" />
        </mxCell>
        <mxCell id="PF5hWqqIt0oe0Bs5G4Fp-68" value="" style="edgeStyle=orthogonalEdgeStyle;rounded=0;orthogonalLoop=1;jettySize=auto;html=1;" edge="1" parent="1" source="PF5hWqqIt0oe0Bs5G4Fp-66" target="PF5hWqqIt0oe0Bs5G4Fp-60">
          <mxGeometry relative="1" as="geometry" />
        </mxCell>
        <mxCell id="PF5hWqqIt0oe0Bs5G4Fp-66" value="demander le nombre d&#39;évolution:(temps" style="whiteSpace=wrap;html=1;rounded=1;" vertex="1" parent="1">
          <mxGeometry x="357.03" y="2680" width="120" height="60" as="geometry" />
        </mxCell>
        <mxCell id="PF5hWqqIt0oe0Bs5G4Fp-72" style="edgeStyle=orthogonalEdgeStyle;rounded=0;orthogonalLoop=1;jettySize=auto;html=1;" edge="1" parent="1" source="PF5hWqqIt0oe0Bs5G4Fp-70" target="PF5hWqqIt0oe0Bs5G4Fp-62">
          <mxGeometry relative="1" as="geometry" />
        </mxCell>
        <mxCell id="PF5hWqqIt0oe0Bs5G4Fp-70" value="i=0" style="whiteSpace=wrap;html=1;rounded=1;" vertex="1" parent="1">
          <mxGeometry x="356.03" y="2980" width="120" height="60" as="geometry" />
        </mxCell>
        <mxCell id="PF5hWqqIt0oe0Bs5G4Fp-76" value="" style="edgeStyle=orthogonalEdgeStyle;rounded=0;orthogonalLoop=1;jettySize=auto;html=1;" edge="1" parent="1" source="PF5hWqqIt0oe0Bs5G4Fp-73" target="PF5hWqqIt0oe0Bs5G4Fp-75">
          <mxGeometry relative="1" as="geometry" />
        </mxCell>
        <mxCell id="PF5hWqqIt0oe0Bs5G4Fp-73" value="afficher grille&amp;nbsp;" style="whiteSpace=wrap;html=1;rounded=1;" vertex="1" parent="1">
          <mxGeometry x="357.03" y="3290" width="120" height="60" as="geometry" />
        </mxCell>
        <mxCell id="PF5hWqqIt0oe0Bs5G4Fp-78" value="" style="edgeStyle=orthogonalEdgeStyle;rounded=0;orthogonalLoop=1;jettySize=auto;html=1;" edge="1" parent="1" source="PF5hWqqIt0oe0Bs5G4Fp-75" target="PF5hWqqIt0oe0Bs5G4Fp-77">
          <mxGeometry relative="1" as="geometry" />
        </mxCell>
        <mxCell id="PF5hWqqIt0oe0Bs5G4Fp-75" value="i=i+1" style="whiteSpace=wrap;html=1;rounded=1;" vertex="1" parent="1">
          <mxGeometry x="357.03" y="3430" width="120" height="60" as="geometry" />
        </mxCell>
        <mxCell id="PF5hWqqIt0oe0Bs5G4Fp-80" value="" style="edgeStyle=orthogonalEdgeStyle;rounded=0;orthogonalLoop=1;jettySize=auto;html=1;entryX=1;entryY=0.5;entryDx=0;entryDy=0;" edge="1" parent="1" source="PF5hWqqIt0oe0Bs5G4Fp-77" target="PF5hWqqIt0oe0Bs5G4Fp-62">
          <mxGeometry relative="1" as="geometry">
            <mxPoint x="417.03" y="3710" as="targetPoint" />
            <Array as="points">
              <mxPoint x="597.0300000000001" y="3600" />
              <mxPoint x="597.0300000000001" y="3160" />
            </Array>
          </mxGeometry>
        </mxCell>
        <mxCell id="PF5hWqqIt0oe0Bs5G4Fp-77" value="faire évoluer a grille&amp;nbsp;" style="whiteSpace=wrap;html=1;rounded=1;" vertex="1" parent="1">
          <mxGeometry x="357.03" y="3570" width="120" height="60" as="geometry" />
        </mxCell>
        <mxCell id="PF5hWqqIt0oe0Bs5G4Fp-85" value="" style="edgeStyle=orthogonalEdgeStyle;rounded=0;orthogonalLoop=1;jettySize=auto;html=1;" edge="1" parent="1" source="PF5hWqqIt0oe0Bs5G4Fp-82" target="PF5hWqqIt0oe0Bs5G4Fp-84">
          <mxGeometry relative="1" as="geometry" />
        </mxCell>
        <mxCell id="PF5hWqqIt0oe0Bs5G4Fp-82" value="afficher la grille" style="whiteSpace=wrap;html=1;rounded=1;" vertex="1" parent="1">
          <mxGeometry x="151.03" y="3510" width="120" height="60" as="geometry" />
        </mxCell>
        <mxCell id="PF5hWqqIt0oe0Bs5G4Fp-84" value="afficher &quot;fin de l&#39;évolution&quot;" style="whiteSpace=wrap;html=1;rounded=1;" vertex="1" parent="1">
          <mxGeometry x="151.03" y="3650" width="120" height="60" as="geometry" />
        </mxCell>
        <mxCell id="PF5hWqqIt0oe0Bs5G4Fp-86" value="" style="ellipse;html=1;shape=endState;fillColor=strokeColor;" vertex="1" parent="1">
          <mxGeometry x="196.03" y="3790" width="30" height="30" as="geometry" />
        </mxCell>
        <mxCell id="PF5hWqqIt0oe0Bs5G4Fp-87" style="edgeStyle=orthogonalEdgeStyle;rounded=0;orthogonalLoop=1;jettySize=auto;html=1;entryX=0.53;entryY=0.192;entryDx=0;entryDy=0;entryPerimeter=0;" edge="1" parent="1" source="PF5hWqqIt0oe0Bs5G4Fp-84" target="PF5hWqqIt0oe0Bs5G4Fp-86">
          <mxGeometry relative="1" as="geometry" />
        </mxCell>
        <mxCell id="PF5hWqqIt0oe0Bs5G4Fp-89" style="edgeStyle=orthogonalEdgeStyle;rounded=0;orthogonalLoop=1;jettySize=auto;html=1;" edge="1" parent="1" source="PF5hWqqIt0oe0Bs5G4Fp-88" target="PF5hWqqIt0oe0Bs5G4Fp-54">
          <mxGeometry relative="1" as="geometry" />
        </mxCell>
        <mxCell id="PF5hWqqIt0oe0Bs5G4Fp-88" value="" style="ellipse;fillColor=strokeColor;html=1;" vertex="1" parent="1">
          <mxGeometry x="406.03" y="1990" width="20" height="20" as="geometry" />
        </mxCell>
      </root>
    </mxGraphModel>
  </diagram>
</mxfile>
